<svg xmlns="http://www.w3.org/2000/svg" width="720" height="1280" viewBox="0 0 720 1280" fill="none">
  <defs>
    <linearGradient id="bg3" x1="0" y1="0" x2="720" y2="1280" gradientUnits="userSpaceOnUse">
      <stop stop-color="#F8FAFF"/>
      <stop offset="1" stop-color="#E8EEFF"/>
    </linearGradient>
    <linearGradient id="accent3" x1="160" y1="240" x2="560" y2="1020" gradientUnits="userSpaceOnUse">
      <stop stop-color="#7B80FF" stop-opacity="0.2"/>
      <stop offset="1" stop-color="#5F6CFF" stop-opacity="0.08"/>
    </linearGradient>
  </defs>
  <rect width="720" height="1280" fill="url(#bg3)"/>
  <path d="M0 210C142 142 258 130 412 184C558 236 650 232 720 186V0H0V210Z" fill="#CAD4FF" fill-opacity="0.32"/>
  <rect x="110" y="190" width="500" height="920" rx="48" fill="#FFFFFF" fill-opacity="0.88" stroke="#DCE3FA"/>
  <rect x="150" y="236" width="420" height="380" rx="28" fill="url(#accent3)"/>
  <rect x="184" y="664" width="300" height="22" rx="11" fill="#A0AACB" fill-opacity="0.58"/>
  <rect x="184" y="706" width="256" height="18" rx="9" fill="#A0AACB" fill-opacity="0.48"/>
  <rect x="184" y="752" width="352" height="18" rx="9" fill="#A0AACB" fill-opacity="0.44"/>
  <rect x="184" y="812" width="352" height="140" rx="22" fill="#EEF2FF"/>
  <rect x="184" y="990" width="180" height="44" rx="22" fill="#6D5DFB" fill-opacity="0.82"/>
</svg>
